<svg xmlns="http://www.w3.org/2000/svg" width="40" height="40" viewBox="0 0 40 40"><defs><style>.a{opacity:0.5;}.b{fill:#fff;}</style></defs><g class="a" transform="translate(-15.965 -15.965)"><path class="b" d="M44.732,51.264c-4.453-4.453-12.213-5.289-17.113-.389a15.216,15.216,0,0,0-4.312,8.94c-.461,2.684-.666,4.789-2.472,6.595L16.8,70.449a2.87,2.87,0,0,0,0,4.039l.337.337a2.856,2.856,0,0,0,4.039,4.039l.337.337a2.87,2.87,0,0,0,4.039,0l4.039-4.039c1.806-1.806,3.911-2.01,6.595-2.472a15.215,15.215,0,0,0,8.941-4.312c4.9-4.9,4.064-12.66-.389-17.113ZM43.386,52.61c3.757,3.757,4.5,10.312.389,14.42a12.989,12.989,0,0,1-7.91,3.787c-2.335.4-4.78.664-6.91,2.366l-6.142-6.142c1.7-2.13,1.965-4.575,2.367-6.91a12.988,12.988,0,0,1,3.786-7.91c4.108-4.108,10.664-3.367,14.42.389ZM21.508,68.43l6.058,6.058L26.22,75.834l-6.058-6.058,1.346-1.346Zm-2.692,2.692,6.058,6.059-.673.673a.943.943,0,0,1-1.346,0l-4.712-4.712a.943.943,0,0,1,0-1.346Zm-.337,5.049,1.346,1.346a.952.952,0,0,1-1.346-1.346Z" transform="translate(0 -24.066)"/><g transform="translate(21.566 15.965)"><path class="b" d="M145.638,39.644a.952.952,0,0,0-1.346,0L141.6,42.337a.952.952,0,0,0,1.346,1.346l2.693-2.693a.952.952,0,0,0,0-1.346Z" transform="translate(-117.087 -33.796)"/><path class="b" d="M97.708,16.238a.952.952,0,0,0-1.62.673v3.807a.947.947,0,0,0,1.893,0V16.912A.945.945,0,0,0,97.708,16.238Z" transform="translate(-82.62 -15.965)"/><path class="b" d="M165.509,96.23a.945.945,0,0,0-.673-.273h-3.807a.947.947,0,0,0,0,1.893h3.807a.952.952,0,0,0,.673-1.62Z" transform="translate(-131.383 -76.919)"/><path class="b" d="M86.339,62.96a1.418,1.418,0,0,0-.326-.242,9.014,9.014,0,0,0-8.877.82,1,1,0,0,0-.242,1.336.988.988,0,0,0,1.325.231,7.153,7.153,0,0,1,7.026-.652.983.983,0,0,0,1.178-.316.893.893,0,0,0-.084-1.178Z" transform="translate(-67.874 -50.98)"/><path class="b" d="M41.123,39.644a.952.952,0,1,0-1.346,1.346l2.693,2.693a.952.952,0,0,0,1.346-1.346Z" transform="translate(-39.497 -33.796)"/><path class="b" d="M142.946,141.468a.952.952,0,0,0-1.346,1.346l2.693,2.692a.952.952,0,1,0,1.346-1.346l-2.693-2.693Z" transform="translate(-117.087 -111.386)"/></g></g></svg>