<svg xmlns="http://www.w3.org/2000/svg" width="9.928" height="16" viewBox="0 0 9.928 16"><defs><style>.a{fill:#999;}</style></defs><path class="a" d="M104.445,94.261a5.412,5.412,0,0,1,0,6.881,3.583,3.583,0,0,1-.423.444,2,2,0,0,0-.737,1.564v.642a.57.57,0,0,1-.549.576h0a.57.57,0,0,1-.548-.576v-.642a3.175,3.175,0,0,1,1.113-2.42c.109-.115.235-.23.329-.345a4.194,4.194,0,0,0,0-5.35,3.749,3.749,0,0,0-5.816,0,4.2,4.2,0,0,0,.016,5.366l.329.346a3.166,3.166,0,0,1,1.113,2.453v.625a.57.57,0,0,1-.548.576h0a.57.57,0,0,1-.549-.576v-.609a2,2,0,0,0-.752-1.58c-.157-.181-.3-.313-.424-.478a5.415,5.415,0,0,1-.015-6.9,4.832,4.832,0,0,1,7.461,0ZM102.721,105.4H98.708a.577.577,0,0,0,0,1.153h4.013a.577.577,0,0,0,0-1.153Zm-.925,1.943H99.633a.577.577,0,0,0,0,1.152H101.8a.577.577,0,0,0,0-1.152Zm-1.082-2.963a.57.57,0,0,0,.549-.576V99.825a.667.667,0,0,0-.157-.411l-1.552-1.63a.512.512,0,0,0-.768,0,.576.576,0,0,0,0,.806l1.395,1.465v3.737A.553.553,0,0,0,100.714,104.385Zm1.646-5.465.3-.313a.578.578,0,0,0,0-.807.514.514,0,0,0-.768,0l-.3.313a.578.578,0,0,0,0,.807.532.532,0,0,0,.392.164A.5.5,0,0,0,102.36,98.92Z" transform="translate(-95.752 -92.5)"/></svg>