<svg xmlns="http://www.w3.org/2000/svg" width="30.883" height="40" viewBox="0 0 30.883 40"><defs><style>.a{fill:#fff;}.b{fill:#00b140;}</style></defs><g transform="translate(-282.743 -47.547)"><g transform="translate(282.743 56.623)"><path class="a" d="M284.416,87.935a.929.929,0,0,0-.838-.455.957.957,0,0,0-.725,1.378l17.273,29.091a.894.894,0,0,0,.781.455.882.882,0,0,0,.909-.909.832.832,0,0,0-.128-.469Z" transform="translate(-282.743 -87.479)"/></g><path class="b" d="M301.107,72.831c1.215-2.844,3.259-3.805,5.966-4.4,2.313-.511,5.1-.661,7.685-1.449a8.853,8.853,0,0,0,6.151-5.5.945.945,0,0,0-.554-1.165L313.238,57.8V48.456a.9.9,0,0,0-.909-.909.994.994,0,0,0-.852.6c-1.014,2.787-2.865,3.81-5.313,4.432s-5.42.68-8.153,1.364a8.851,8.851,0,0,0-5.781,3.963L293.4,59.86a6.929,6.929,0,0,1,5.068-4.159c2.438-.61,5.394-.666,8.139-1.364a9.7,9.7,0,0,0,4.815-2.756v6.875a.933.933,0,0,0,.611.852l6.747,2.386a6.92,6.92,0,0,1-4.545,3.537c-2.281.7-5.032.862-7.557,1.42A9.682,9.682,0,0,0,300.013,71Z" transform="translate(-7.33 0)"/></g></svg>