<svg xmlns="http://www.w3.org/2000/svg" width="15.89" height="14" viewBox="0 0 15.89 14"><defs><style>.a{fill:#999;}</style></defs><path class="a" d="M103.845,93.5a4.97,4.97,0,0,0-3.7,2.108,4.969,4.969,0,0,0-3.7-2.108A4.246,4.246,0,0,0,92.2,97.734a4.383,4.383,0,0,0,.307,1.6c.379.937,2.312,2.847,4.984,5.459.975.955,1.824,1.784,2.257,2.253l.4.45.4-.45c.416-.469,1.264-1.3,2.257-2.253,2.673-2.594,4.587-4.522,4.984-5.459a4.023,4.023,0,0,0,.307-1.6A4.245,4.245,0,0,0,103.845,93.5Zm2.925,5.423c-.325.793-2.979,3.388-4.731,5.082-.74.72-1.426,1.387-1.9,1.873-.469-.486-1.156-1.153-1.9-1.873-1.751-1.694-4.406-4.271-4.731-5.082a2.981,2.981,0,0,1-.234-1.189,3.171,3.171,0,0,1,3.16-3.153c1.137,0,2.166.7,3.268,2.234l.433.613.433-.613c1.084-1.532,2.131-2.234,3.269-2.234A3.172,3.172,0,0,1,107,97.734,2.982,2.982,0,0,1,106.77,98.923Z" transform="translate(-92.198 -93.5)"/></svg>