<svg xmlns="http://www.w3.org/2000/svg" width="191" height="50" viewBox="0 0 191 50"><defs><style>.a{fill:#69a52b;}.b{fill:#3aa6c5;}.c,.d{fill:#fff;}.d{font-size:10px;font-family:ArialMT, Arial;letter-spacing:0.01em;}</style></defs><g transform="translate(-310 -299)"><rect class="a" width="9.613" height="2.403" rx="1.201" transform="matrix(0.379, -0.926, 0.926, 0.379, 341.125, 307.897)"/><path class="a" d="M1.2,0h0A1.2,1.2,0,0,1,2.4,1.2v7.21a1.2,1.2,0,0,1-1.2,1.2h0A1.2,1.2,0,0,1,0,8.412V1.2A1.2,1.2,0,0,1,1.2,0Z" transform="translate(325.897 300.845) rotate(-20.29)"/><path class="a" d="M1.2,0h0A1.2,1.2,0,0,1,2.4,1.2v7.21a1.2,1.2,0,0,1-1.2,1.2h0A1.2,1.2,0,0,1,0,8.412V1.2A1.2,1.2,0,0,1,1.2,0Z" transform="translate(312.506 313.116) rotate(-58.995)"/><path class="a" d="M1.2,0h7.21a1.2,1.2,0,0,1,1.2,1.2v0a1.2,1.2,0,0,1-1.2,1.2H1.2A1.2,1.2,0,0,1,0,1.2v0A1.2,1.2,0,0,1,1.2,0Z" transform="matrix(0.996, -0.084, 0.084, 0.996, 310, 326.3)"/><path class="b" d="M54.858,77c1.123,1.848,2.312,3.658,3.513,5.459L59.621,84.4a1.151,1.151,0,0,0,1.255.484c.012,0,.027,0,.038,0a.573.573,0,0,0,.237-.109c.024-.013.052-.014.075-.03a1.174,1.174,0,0,0,.344-1.614l-5.742-8.923a1.1,1.1,0,0,0-.146-.15.108.108,0,0,1,.042-.064c2.491-1.806,2.57-4.45,2.637-7.1a25.042,25.042,0,0,1,.149-3.87c1.258-6.845,7.606-11.237,14.758-10.3,6.658.876,11.563,7.237,10.945,14.193A13.069,13.069,0,0,1,70.889,78.485c-2.424-.075-4.864-.2-7.02,1.262a.1.1,0,0,1-.147-.028L59.6,73.347a1.2,1.2,0,0,0-2.018,1.3L62,81.485l-.01.01c.034.052.071.089.105.136l.149.23a1.082,1.082,0,0,0,.578.439,2.035,2.035,0,0,0,2.183-.38A5.475,5.475,0,0,1,67.171,80.9a28.731,28.731,0,0,1,4.216-.215c5.915,0,10.264-2.794,13.17-7.749,3.008-5.129,2.679-10.4-.376-15.4a15.3,15.3,0,0,0-17.505-6.564A15.134,15.134,0,0,0,56.1,66.331c.083,2.28.089,4.576-2.005,6.288a1.709,1.709,0,0,0-.439,2.333Z" transform="translate(266.296 260.448)"/><path class="b" d="M42.761,127.972a1.183,1.183,0,0,0-1.621-.347,1.158,1.158,0,0,0-.345,1.608l4.613,7.063a1.183,1.183,0,0,0,1.621.347l0,0a1.155,1.155,0,0,0,.343-1.6Z" transform="translate(274.284 212.172)"/><path class="b" d="M49.032,119.782a1.161,1.161,0,0,0-1.606-.346,1.175,1.175,0,0,0-.344,1.614l5.742,8.923a1.161,1.161,0,0,0,1.605.346,1.174,1.174,0,0,0,.344-1.614Z" transform="translate(270.347 217.297)"/><g transform="translate(356.046 313.228)"><path class="c" d="M154.054,59.208a1.787,1.787,0,0,0-.223-1.114,1.287,1.287,0,0,0-.863-.327,1.2,1.2,0,0,0-1.16.594c-.03.084-.223.274-.223,1.59V62c0,1.877.617,2.1,1.371,2.1.3,0,1.206-.1,1.216-1.6h1.01c.043,2.422-1.671,2.422-2.172,2.422-.957,0-2.426-.065-2.426-3.035V59.717c0-2.164.957-2.78,2.468-2.78s2.109.788,2.013,2.271Z" transform="translate(-150.584 -56.937)"/><path class="c" d="M165.144,66.1c0-1.569.182-2.861,2.043-2.861s2.044,1.292,2.044,2.861c0,2.366-.9,2.7-2.044,2.7s-2.043-.338-2.043-2.7m3.172-.369c0-1.466-.457-1.782-1.129-1.782s-1.128.316-1.128,1.782c0,1.739.224,2.363,1.128,2.363s1.129-.624,1.129-2.363" transform="translate(-159.695 -60.881)"/><path class="c" d="M181.586,63.343h.872v5.9c0,1.2-.8,1.486-1.981,1.486-.893,0-1.7-.446-1.627-1.431h.979a.746.746,0,0,0,.82.774.859.859,0,0,0,.937-.922V68.029h-.034a1.341,1.341,0,0,1-1.18.668c-1.458,0-1.745-1.249-1.745-2.841,0-2.461,1.245-2.617,1.681-2.617a1.3,1.3,0,0,1,1.258.763h.021Zm-1.022.614c-.991,0-1.023,1.188-1.023,1.9,0,1.719.395,2.121,1.043,2.121,1.053,0,1.021-1.239,1.021-1.983,0-.8.053-2.037-1.042-2.037" transform="translate(-168.133 -60.881)"/><path class="c" d="M195.477,68.7V64.988c0-.573-.2-1.038-.946-1.038-.959,0-1.1.845-1.1,1.577V68.7h-.872V64.458c0-.371-.021-.741-.054-1.113h.925v.689h.043a1.414,1.414,0,0,1,1.437-.792c1.15,0,1.44.687,1.44,1.746V68.7Z" transform="translate(-176.818 -60.883)"/><path class="c" d="M206.9,57.365h.978V58.3H206.9Zm.926,7.657h-.873V59.667h.873Z" transform="translate(-185.824 -57.205)"/><path class="c" d="M216.246,64.312l-2.372,3.849h2.448v.71h-3.4v-.813l2.343-3.809v-.02h-2.227v-.711h3.2Z" transform="translate(-189.596 -61.055)"/><path class="c" d="M227.373,67.925h-.022A1.315,1.315,0,0,1,226,68.8c-1.14,0-1.468-.732-1.468-1.759,0-1.624,1.6-1.7,2.818-1.666.022-.711.034-1.484-.9-1.484a.794.794,0,0,0-.842.954h-.946c.042-1.2.68-1.609,1.819-1.609,1.383,0,1.746.71,1.746,1.609v2.58a8.227,8.227,0,0,0,.107,1.27h-.959ZM225.4,67.11c0,.518.256.983.841.983.531,0,1.191-.328,1.106-2.055-.829.01-1.947-.065-1.947,1.072" transform="translate(-196.86 -60.881)"/><path class="c" d="M241.011,68.7V64.988c0-.573-.2-1.038-.947-1.038-.958,0-1.1.845-1.1,1.577V68.7h-.873V64.458c0-.371-.021-.741-.051-1.113h.924v.689h.044a1.414,1.414,0,0,1,1.437-.792c1.15,0,1.437.687,1.437,1.746V68.7Z" transform="translate(-205.314 -60.883)"/><path class="c" d="M251.437,61.143V60.113l.872-.39v1.42h1.172V61.8h-1.172v3.276c0,.338,0,.774.8.774.064,0,.2-.022.393-.043v.668c-.288.02-.575.084-.863.084-.83,0-1.2-.339-1.2-.954V61.8h-.884v-.659Z" transform="translate(-213.142 -58.68)"/></g><g transform="translate(356.756 324.244)"><path class="b" d="M152.48,104.92v-16.7h2.481v16.7Z" transform="translate(-152.48 -87.529)"/><path class="b" d="M181.4,104.92l-6.656-10.472q-.31-.477-.68-1.1T173.5,92.4v.74q0,.5.012,1.073t.012,1.133v9.578h-2.433v-16.7h2.552l6.346,10.186q.167.263.369.6t.394.68q.191.346.358.632l.262.453v-.751q0-.513-.012-1.1t-.012-1.157V88.221h2.433v16.7Z" transform="translate(-164.128 -87.529)"/><path class="a" d="M224.941,103.92a6.786,6.786,0,0,1-3.376.823,6.6,6.6,0,0,1-2.922-.632,6.391,6.391,0,0,1-2.218-1.777,8.327,8.327,0,0,1-1.419-2.719,12.313,12.313,0,0,1,0-6.954,8.31,8.31,0,0,1,1.419-2.731,6.4,6.4,0,0,1,2.218-1.777,6.6,6.6,0,0,1,2.922-.632,6.781,6.781,0,0,1,3.435.8,6.025,6.025,0,0,1,2.242,2.326l-2.219,1.383a4.755,4.755,0,0,0-1.407-1.515,3.766,3.766,0,0,0-2.051-.489,3.811,3.811,0,0,0-3.34,1.646,9.263,9.263,0,0,0,0,8.921,3.811,3.811,0,0,0,3.34,1.646,4.1,4.1,0,0,0,2.171-.525,4.681,4.681,0,0,0,1.5-1.55l2.075,1.383A6.3,6.3,0,0,1,224.941,103.92Z" transform="translate(-191.293 -87.091)"/><path class="a" d="M262.7,111.461v-1.241a5.605,5.605,0,0,1-1.527,1.073,4.3,4.3,0,0,1-1.908.43,5.457,5.457,0,0,1-1.539-.227,3.958,3.958,0,0,1-1.4-.727,3.758,3.758,0,0,1-1.014-1.312,4.446,4.446,0,0,1-.394-1.956,4.016,4.016,0,0,1,.381-1.813,3.529,3.529,0,0,1,1.05-1.264,4.5,4.5,0,0,1,1.574-.739,7.779,7.779,0,0,1,1.98-.239,6.94,6.94,0,0,1,2.791.477v-.93a2.012,2.012,0,0,0-.608-1.574,2.533,2.533,0,0,0-1.753-.549,7.35,7.35,0,0,0-1.753.191,6.251,6.251,0,0,0-1.515.6l-.954-1.861a7.723,7.723,0,0,1,1.932-.835,8.809,8.809,0,0,1,2.361-.286,5.288,5.288,0,0,1,3.4,1.038,3.8,3.8,0,0,1,1.3,3.161v8.588Zm0-5.344a4.573,4.573,0,0,0-1.181-.406,8.339,8.339,0,0,0-1.682-.143,3.152,3.152,0,0,0-1.885.5,1.59,1.59,0,0,0-.692,1.36,1.988,1.988,0,0,0,.6,1.5,2.529,2.529,0,0,0,1.813.573,3.322,3.322,0,0,0,1.8-.5,4.294,4.294,0,0,0,1.229-1.1Z" transform="translate(-216.584 -94.071)"/><path class="a" d="M295.843,103.453a4.151,4.151,0,0,1-1.062.417,5.443,5.443,0,0,1-1.348.155,2.673,2.673,0,0,1-2.063-.811,3.584,3.584,0,0,1-.751-2.5V93.482H288.83V91.239h1.789V87.661l2.409-1.288v4.866h3.1v2.243h-3.1v6.8a1.752,1.752,0,0,0,.3,1.193,1.329,1.329,0,0,0,.99.31,3.289,3.289,0,0,0,.978-.155,4.184,4.184,0,0,0,.835-.346Z" transform="translate(-237.805 -86.373)"/><path class="a" d="M322.552,111.461v-1.241a5.611,5.611,0,0,1-1.527,1.073,4.3,4.3,0,0,1-1.909.43,5.456,5.456,0,0,1-1.538-.227,3.962,3.962,0,0,1-1.4-.727,3.761,3.761,0,0,1-1.014-1.312,4.446,4.446,0,0,1-.394-1.956,4.01,4.01,0,0,1,.382-1.813,3.525,3.525,0,0,1,1.05-1.264,4.492,4.492,0,0,1,1.574-.739,7.779,7.779,0,0,1,1.98-.239,6.941,6.941,0,0,1,2.791.477v-.93a2.012,2.012,0,0,0-.608-1.574,2.534,2.534,0,0,0-1.754-.549,7.347,7.347,0,0,0-1.753.191,6.246,6.246,0,0,0-1.515.6l-.954-1.861a7.72,7.72,0,0,1,1.932-.835,8.811,8.811,0,0,1,2.362-.286,5.288,5.288,0,0,1,3.4,1.038,3.8,3.8,0,0,1,1.3,3.161v8.588Zm0-5.344a4.581,4.581,0,0,0-1.181-.406,8.339,8.339,0,0,0-1.682-.143,3.153,3.153,0,0,0-1.885.5,1.591,1.591,0,0,0-.692,1.36,1.989,1.989,0,0,0,.6,1.5,2.53,2.53,0,0,0,1.813.573,3.321,3.321,0,0,0,1.8-.5,4.3,4.3,0,0,0,1.229-1.1Z" transform="translate(-254.041 -94.071)"/><path class="a" d="M351.746,103.763v-16.1l2.481-1.288v17.39Z" transform="translate(-277.176 -86.373)"/><path class="a" d="M370.97,116.313h-2.6l1.813-4.652-4.6-12.286h2.7l2.052,6.131q.143.406.31.93t.322,1.05q.154.525.286.966a7.1,7.1,0,0,1,.178.7q.072-.286.2-.727t.287-.942q.154-.5.322-1.014t.31-.918l2.123-6.179h2.6Z" transform="translate(-285.833 -94.51)"/><path class="a" d="M410.006,108.026a3.552,3.552,0,0,1-.394,1.753,3.232,3.232,0,0,1-1.038,1.133,4.4,4.4,0,0,1-1.491.62,8.066,8.066,0,0,1-1.777.191,7.617,7.617,0,0,1-2.564-.453,8.757,8.757,0,0,1-2.231-1.145l1.121-1.861a6.923,6.923,0,0,0,1.825.93,5.816,5.816,0,0,0,1.825.31q2.29,0,2.29-1.384a1.287,1.287,0,0,0-.775-1.145,17.812,17.812,0,0,0-2.135-.954,13.018,13.018,0,0,1-1.706-.775,4.966,4.966,0,0,1-1.145-.847,2.676,2.676,0,0,1-.632-1.014,4.021,4.021,0,0,1-.191-1.3,3.371,3.371,0,0,1,.31-1.479,2.885,2.885,0,0,1,.883-1.074,3.988,3.988,0,0,1,1.359-.644,6.523,6.523,0,0,1,1.718-.215,7.036,7.036,0,0,1,2.3.382,7.121,7.121,0,0,1,1.944,1l-1.073,1.885a5.833,5.833,0,0,0-1.551-.811,5.328,5.328,0,0,0-1.694-.262,2.122,2.122,0,0,0-1.312.322,1.006,1.006,0,0,0-.406.823,1.017,1.017,0,0,0,.1.441,1.259,1.259,0,0,0,.358.418,4.047,4.047,0,0,0,.7.441q.441.227,1.157.513,1.05.406,1.837.775a5.73,5.73,0,0,1,1.324.835,2.954,2.954,0,0,1,.8,1.085A3.867,3.867,0,0,1,410.006,108.026Z" transform="translate(-307.693 -94.071)"/><path class="a" d="M437.931,103.453a4.15,4.15,0,0,1-1.062.417,5.444,5.444,0,0,1-1.348.155,2.673,2.673,0,0,1-2.063-.811,3.584,3.584,0,0,1-.751-2.5V93.482h-1.789V91.239h1.789V87.661l2.409-1.288v4.866h3.1v2.243h-3.1v6.8a1.752,1.752,0,0,0,.3,1.193,1.329,1.329,0,0,0,.99.31,3.289,3.289,0,0,0,.978-.155,4.183,4.183,0,0,0,.835-.346Z" transform="translate(-326.72 -86.373)"/></g><g transform="translate(472.005 325.631)"><path class="a" d="M461.933,90.625v2.711h-.555V90.625h-.928v-.546h2.411v.546Zm3.86,2.711V91.245c-.022.049-.044.1-.066.157l-.066.165-.812,1.868-.8-1.868-.066-.165c-.022-.055-.044-.1-.066-.149.006.061.008.124.008.19v1.893h-.53V90.079h.555l.738,1.686.087.232c.03.083.06.154.087.215.028-.066.057-.138.087-.215s.059-.154.087-.232l.721-1.686h.564v3.257Z" transform="translate(-460.45 -90.079)"/></g><text class="d" transform="translate(479 333)"><tspan x="0" y="9">Beta</tspan></text></g></svg>