<svg xmlns="http://www.w3.org/2000/svg" width="40" height="31.543" viewBox="0 0 40 31.543"><defs><style>.a{opacity:0.5;}.b{fill:#fff;}</style></defs><g class="a" transform="translate(-460.396 -46.547)"><path class="b" d="M495.5,77l.087-.129a18.312,18.312,0,0,0,3.12-9.1l.026-.4h-5.98V65.724h5.981l-.026-.4a18.438,18.438,0,0,0-4.493-10.878l-.264-.3-4.234,4.233-1.167-1.155.589-.576,3.657-3.657-.3-.264a18.439,18.439,0,0,0-10.879-4.493l-.4-.027v5.981h-1.646V48.205l-.4.027a18.44,18.44,0,0,0-10.878,4.493l-.3.264,3.654,3.654.592.579-1.167,1.155-4.233-4.233-.264.3a18.439,18.439,0,0,0-4.493,10.878l-.027.4h5.981V67.37h-5.98l.026.4a18.314,18.314,0,0,0,3.12,9.1l.087.129-1.236,1.094-.113-.163a20,20,0,1,1,32.916,0l-.113.163Z" transform="translate(0 0)"/><path class="b" d="M561.361,152.119a2.618,2.618,0,0,1-1.884-4.439l.081-.084,1.629-9.756h.349l1.628,9.756.081.084a2.618,2.618,0,0,1-1.884,4.439Z" transform="translate(-80.965 -75.16)"/></g></svg>