<svg xmlns="http://www.w3.org/2000/svg" width="36.876" height="40" viewBox="0 0 36.876 40"><defs><style>.a{fill:#fff;}.b{fill:#00b140;}</style></defs><g transform="translate(-282.743 -47.547)"><g transform="translate(282.743 56.623)"><path class="a" d="M284.416,87.935a.929.929,0,0,0-.838-.455.957.957,0,0,0-.725,1.378L297,112.712a.9.9,0,0,0,.781.455.882.882,0,0,0,.909-.909.833.833,0,0,0-.128-.469Z" transform="translate(-282.743 -87.479)"/></g><path class="a" d="M301.107,72.831c1.215-2.844,3.259-3.805,5.966-4.4,2.313-.511,5.1-.661,7.685-1.449a8.853,8.853,0,0,0,6.151-5.5.945.945,0,0,0-.554-1.165L313.238,57.8V48.456a.9.9,0,0,0-.909-.909.994.994,0,0,0-.852.6c-1.014,2.787-2.865,3.81-5.312,4.432s-5.42.68-8.153,1.364a8.85,8.85,0,0,0-5.781,3.963l1.168,1.957a6.929,6.929,0,0,1,5.067-4.159c2.438-.61,5.394-.666,8.139-1.364a9.7,9.7,0,0,0,4.815-2.756v6.875a.933.933,0,0,0,.611.852l6.747,2.386a6.92,6.92,0,0,1-4.545,3.537c-2.281.7-5.032.862-7.557,1.42A9.682,9.682,0,0,0,300.013,71Z" transform="translate(-7.33)"/><g transform="translate(299.262 67.19)"><g transform="translate(0)"><path class="b" d="M381.579,144.937a5.481,5.481,0,1,0-5.481-5.481A5.487,5.487,0,0,0,381.579,144.937Zm0-9.4a3.915,3.915,0,1,1-3.915,3.915A3.919,3.919,0,0,1,381.579,135.541Z" transform="translate(-371.4 -133.975)"/><path class="b" d="M371.952,177.625a.784.784,0,0,0-1.075.093,7.023,7.023,0,0,1-10.542,0,.784.784,0,0,0-1.075-.093,10.132,10.132,0,0,0-3.833,7.956v1.566a.783.783,0,0,0,.783.783H375a.783.783,0,0,0,.783-.783v-1.566A10.133,10.133,0,0,0,371.952,177.625Zm2.267,8.739H356.994v-.783a8.564,8.564,0,0,1,2.709-6.268,8.583,8.583,0,0,0,11.808,0,8.566,8.566,0,0,1,2.709,6.268Z" transform="translate(-355.428 -167.573)"/></g></g></g></svg>