<svg xmlns="http://www.w3.org/2000/svg" width="35.558" height="40" viewBox="0 0 35.558 40"><defs><style>.a{opacity:0.498;}.b{fill:#fff;}</style></defs><g class="a" transform="translate(174.233 37.203)"><path class="b" d="M-174.233,23V38.266a.816.816,0,0,0,.816.816h7.347a.816.816,0,0,0,.816-.816v-.788a4.49,4.49,0,0,0,3.673,1.931h16.735a4.335,4.335,0,0,0,4.3-3.629l1.792-10.233h0a4.731,4.731,0,0,0-.078-2.041,5.11,5.11,0,0,0-4.918-3.751h-9.514v-6.8A4.167,4.167,0,0,0-157.425,8.8h-1.955a.816.816,0,0,0-.816.816v6.069a9.873,9.873,0,0,1-2.388,6.22l-2.661,2.706V23a.816.816,0,0,0-.816-.816h-7.347a.816.816,0,0,0-.824.808Zm9.8,3.727a1.56,1.56,0,0,1,.343-.971l2.69-2.735.045-.049a11.513,11.513,0,0,0,2.8-7.29V10.43h1.139a2.535,2.535,0,0,1,2.531,2.531v7.608a.816.816,0,0,0,.816.816h10.318a3.473,3.473,0,0,1,3.343,2.551,3.113,3.113,0,0,1,.041,1.335l-1.8,10.237a2.71,2.71,0,0,1-2.682,2.269h-16.735a2.882,2.882,0,0,1-2.857-2.857Zm-8.163-2.91h5.714V37.45H-172.6Z" transform="translate(0 -36.612)"/><rect class="b" width="1.633" height="7.347" rx="0.816" transform="translate(-157.466 -37.203)"/><rect class="b" width="8.163" height="1.633" rx="0.816" transform="translate(-150.119 -24.142)"/><rect class="b" width="1.633" height="8.163" rx="0.816" transform="translate(-168.713 -33.42) rotate(-45)"/><rect class="b" width="8.163" height="1.633" rx="0.816" transform="translate(-152.329 -28.594) rotate(-45)"/><rect class="b" width="8.163" height="1.633" rx="0.816" transform="translate(-171.955 -24.142)"/></g></svg>