<svg xmlns="http://www.w3.org/2000/svg" width="19.999" height="19" viewBox="0 0 19.999 19"><defs><style>.a{fill:#00b140;}</style></defs><path class="a" d="M107.282,101.867a3.093,3.093,0,1,0,3.217,3.091,3.052,3.052,0,0,0-1.509-2.616,9.016,9.016,0,0,0,.074-1.165,8.136,8.136,0,0,0-3.911-6.92l-.792,1.189a6.732,6.732,0,0,1,3.242,5.731,5.989,5.989,0,0,1-.049.69A1.071,1.071,0,0,1,107.282,101.867Zm0,4.756a1.666,1.666,0,1,1,1.732-1.665A1.69,1.69,0,0,1,107.282,106.623ZM100.376,90.5a3.136,3.136,0,0,0-3.193,3.044,6.643,6.643,0,0,0-1.089.547,8.1,8.1,0,0,0-4.183,6.777l1.46.047a6.762,6.762,0,0,1,3.441-5.635c.222-.119.445-.238.668-.333a3.262,3.262,0,0,0,2.9,1.712,3.082,3.082,0,1,0,0-6.159Zm0,4.756a1.666,1.666,0,1,1,1.732-1.665A1.69,1.69,0,0,1,100.376,95.256Zm.1,12.817a7.24,7.24,0,0,1-4.183-1.308,2.916,2.916,0,0,0,.619-1.807,3.208,3.208,0,1,0-3.218,3.091,3.359,3.359,0,0,0,1.46-.333,8.805,8.805,0,0,0,5.322,1.784,9.169,9.169,0,0,0,3.737-.809l-.643-1.26A7.992,7.992,0,0,1,100.475,108.073Zm-8.515-3.115a1.734,1.734,0,1,1,1.733,1.665A1.69,1.69,0,0,1,91.96,104.958Z" transform="translate(-90.5 -90.5)"/></svg>