<svg xmlns="http://www.w3.org/2000/svg" width="21.8" height="25.999" viewBox="0 0 21.8 25.999"><defs><style>.a{fill:#0033a0;}</style></defs><g transform="translate(-184 -137)"><path class="a" d="M444.9,204.989H423.1v-5.751a6.632,6.632,0,0,1,5.493-6.571l.394-.068.258.308a6.183,6.183,0,0,0,9.51,0l.258-.308.394.068a6.632,6.632,0,0,1,5.493,6.571Zm-20.4-1.41h19v-4.341a5.233,5.233,0,0,0-3.959-5.1,7.571,7.571,0,0,1-11.084,0,5.232,5.232,0,0,0-3.959,5.1Z" transform="translate(-239.1 -41.99)"/><path class="a" d="M434,191.409a6.21,6.21,0,1,1,6.164-6.21A6.194,6.194,0,0,1,434,191.409Zm0-11.01a4.8,4.8,0,1,0,4.765,4.8A4.788,4.788,0,0,0,434,180.4Z" transform="translate(-239.1 -41.99)"/></g></svg>