<svg xmlns="http://www.w3.org/2000/svg" width="14" height="16" viewBox="0 0 14 16"><defs><style>.a{fill:#999;}</style></defs><path class="a" d="M101.5,91.5a5.228,5.228,0,0,1,3.711,1.538h0a5.2,5.2,0,0,1,0,7.4,6.929,6.929,0,0,1-.551.476,5.25,5.25,0,0,1,2.315,1.336h0a5.156,5.156,0,0,1,1.525,3.643v.989a.619.619,0,0,1-.625.622H95.125a.619.619,0,0,1-.626-.622v-.971a5.121,5.121,0,0,1,1.526-3.643,5.246,5.246,0,0,1,2.314-1.336,4.805,4.805,0,0,1-.551-.476h0A5.254,5.254,0,0,1,101.5,91.5Zm2.847,2.4a4.048,4.048,0,0,0-5.7,0,3.964,3.964,0,0,0-1.176,2.838,4.071,4.071,0,0,0,1.176,2.837h0a4.035,4.035,0,0,0,2.848,1.172,4.1,4.1,0,0,0,2.847-1.172,3.958,3.958,0,0,0,1.176-2.837,4.036,4.036,0,0,0-1.176-2.838Zm-1.028,8.073H99.681a3.944,3.944,0,0,0-3.95,3.936v.366H107.25v-.366a3.924,3.924,0,0,0-1.158-2.782h0A3.877,3.877,0,0,0,103.318,101.971Z" transform="translate(-94.499 -91.5)"/></svg>